<mxfile host="65bd71144e">
    <diagram name="Page-1" id="8qE44HNmgTWPOjrXm_35">
        <mxGraphModel dx="290" dy="148" grid="1" gridSize="10" guides="1" tooltips="1" connect="1" arrows="1" fold="1" page="1" pageScale="1" pageWidth="850" pageHeight="1100" math="0" shadow="0">
            <root>
                <mxCell id="0"/>
                <mxCell id="1" parent="0"/>
                <mxCell id="JcRO-qJzwoVrJVAjZ1q9-1" value="" style="rounded=0;whiteSpace=wrap;html=1;" parent="1" vertex="1">
                    <mxGeometry x="280" y="80" width="160" height="160" as="geometry"/>
                </mxCell>
                <mxCell id="JcRO-qJzwoVrJVAjZ1q9-2" value="" style="whiteSpace=wrap;html=1;aspect=fixed;" parent="1" vertex="1">
                    <mxGeometry x="280" y="80" width="80" height="80" as="geometry"/>
                </mxCell>
                <mxCell id="JcRO-qJzwoVrJVAjZ1q9-3" value="" style="whiteSpace=wrap;html=1;aspect=fixed;" parent="1" vertex="1">
                    <mxGeometry x="360" y="80" width="80" height="80" as="geometry"/>
                </mxCell>
                <mxCell id="JcRO-qJzwoVrJVAjZ1q9-4" value="" style="whiteSpace=wrap;html=1;aspect=fixed;" parent="1" vertex="1">
                    <mxGeometry x="280" y="160" width="80" height="80" as="geometry"/>
                </mxCell>
                <mxCell id="JcRO-qJzwoVrJVAjZ1q9-9" value="" style="rounded=0;whiteSpace=wrap;html=1;" parent="1" vertex="1">
                    <mxGeometry x="120" y="80" width="160" height="160" as="geometry"/>
                </mxCell>
                <mxCell id="JcRO-qJzwoVrJVAjZ1q9-10" value="" style="whiteSpace=wrap;html=1;aspect=fixed;fillColor=#d5e8d4;strokeColor=#82b366;" parent="1" vertex="1">
                    <mxGeometry x="200" y="80" width="80" height="80" as="geometry"/>
                </mxCell>
                <mxCell id="JcRO-qJzwoVrJVAjZ1q9-11" value="" style="whiteSpace=wrap;html=1;aspect=fixed;fillColor=#d5e8d4;strokeColor=#82b366;" parent="1" vertex="1">
                    <mxGeometry x="200" y="80" width="80" height="80" as="geometry"/>
                </mxCell>
                <mxCell id="JcRO-qJzwoVrJVAjZ1q9-12" value="" style="whiteSpace=wrap;html=1;aspect=fixed;" parent="1" vertex="1">
                    <mxGeometry x="120" y="160" width="80" height="80" as="geometry"/>
                </mxCell>
                <mxCell id="JcRO-qJzwoVrJVAjZ1q9-14" value="" style="whiteSpace=wrap;html=1;aspect=fixed;fillColor=#d5e8d4;strokeColor=#82b366;" parent="1" vertex="1">
                    <mxGeometry x="240" y="120" width="40" height="40" as="geometry"/>
                </mxCell>
                <mxCell id="JcRO-qJzwoVrJVAjZ1q9-19" value="" style="rounded=0;whiteSpace=wrap;html=1;" parent="1" vertex="1">
                    <mxGeometry x="280" y="240" width="160" height="160" as="geometry"/>
                </mxCell>
                <mxCell id="JcRO-qJzwoVrJVAjZ1q9-20" value="" style="whiteSpace=wrap;html=1;aspect=fixed;" parent="1" vertex="1">
                    <mxGeometry x="280" y="240" width="80" height="80" as="geometry"/>
                </mxCell>
                <mxCell id="JcRO-qJzwoVrJVAjZ1q9-21" value="" style="whiteSpace=wrap;html=1;aspect=fixed;" parent="1" vertex="1">
                    <mxGeometry x="360" y="240" width="80" height="80" as="geometry"/>
                </mxCell>
                <mxCell id="JcRO-qJzwoVrJVAjZ1q9-22" value="" style="whiteSpace=wrap;html=1;aspect=fixed;" parent="1" vertex="1">
                    <mxGeometry x="280" y="320" width="80" height="80" as="geometry"/>
                </mxCell>
                <mxCell id="JcRO-qJzwoVrJVAjZ1q9-23" value="" style="whiteSpace=wrap;html=1;aspect=fixed;" parent="1" vertex="1">
                    <mxGeometry x="280" y="240" width="40" height="40" as="geometry"/>
                </mxCell>
                <mxCell id="JcRO-qJzwoVrJVAjZ1q9-24" value="" style="whiteSpace=wrap;html=1;aspect=fixed;" parent="1" vertex="1">
                    <mxGeometry x="320" y="280" width="40" height="40" as="geometry"/>
                </mxCell>
                <mxCell id="JcRO-qJzwoVrJVAjZ1q9-26" value="" style="rounded=0;whiteSpace=wrap;html=1;" parent="1" vertex="1">
                    <mxGeometry x="120" y="240" width="160" height="160" as="geometry"/>
                </mxCell>
                <mxCell id="JcRO-qJzwoVrJVAjZ1q9-27" value="" style="whiteSpace=wrap;html=1;aspect=fixed;" parent="1" vertex="1">
                    <mxGeometry x="200" y="240" width="80" height="80" as="geometry"/>
                </mxCell>
                <mxCell id="JcRO-qJzwoVrJVAjZ1q9-28" value="" style="whiteSpace=wrap;html=1;aspect=fixed;" parent="1" vertex="1">
                    <mxGeometry x="200" y="240" width="80" height="80" as="geometry"/>
                </mxCell>
                <mxCell id="JcRO-qJzwoVrJVAjZ1q9-29" value="" style="whiteSpace=wrap;html=1;aspect=fixed;" parent="1" vertex="1">
                    <mxGeometry x="120" y="320" width="80" height="80" as="geometry"/>
                </mxCell>
                <mxCell id="JcRO-qJzwoVrJVAjZ1q9-30" value="" style="whiteSpace=wrap;html=1;aspect=fixed;" parent="1" vertex="1">
                    <mxGeometry x="200" y="240" width="40" height="40" as="geometry"/>
                </mxCell>
                <mxCell id="JcRO-qJzwoVrJVAjZ1q9-31" value="" style="whiteSpace=wrap;html=1;aspect=fixed;" parent="1" vertex="1">
                    <mxGeometry x="240" y="280" width="40" height="40" as="geometry"/>
                </mxCell>
                <mxCell id="JcRO-qJzwoVrJVAjZ1q9-32" value="" style="whiteSpace=wrap;html=1;aspect=fixed;" parent="1" vertex="1">
                    <mxGeometry x="200" y="280" width="40" height="40" as="geometry"/>
                </mxCell>
                <mxCell id="JcRO-qJzwoVrJVAjZ1q9-38" value="" style="triangle;whiteSpace=wrap;html=1;rotation=90;fillColor=#000000;" parent="1" vertex="1">
                    <mxGeometry x="280" y="303" width="10" height="10" as="geometry"/>
                </mxCell>
                <mxCell id="JcRO-qJzwoVrJVAjZ1q9-40" value="" style="rounded=0;whiteSpace=wrap;html=1;rotation=90;fillColor=#000000;" parent="1" vertex="1">
                    <mxGeometry x="275" y="319" width="20" height="10" as="geometry"/>
                </mxCell>
                <mxCell id="JcRO-qJzwoVrJVAjZ1q9-41" value="" style="whiteSpace=wrap;html=1;aspect=fixed;fillColor=#d5e8d4;strokeColor=#82b366;" parent="1" vertex="1">
                    <mxGeometry x="200" y="160" width="40" height="40" as="geometry"/>
                </mxCell>
                <mxCell id="JcRO-qJzwoVrJVAjZ1q9-42" value="" style="whiteSpace=wrap;html=1;aspect=fixed;fillColor=#d5e8d4;strokeColor=#82b366;" parent="1" vertex="1">
                    <mxGeometry x="240" y="200" width="40" height="40" as="geometry"/>
                </mxCell>
                <mxCell id="JcRO-qJzwoVrJVAjZ1q9-48" value="" style="whiteSpace=wrap;html=1;aspect=fixed;fillColor=#d5e8d4;strokeColor=#82b366;" parent="1" vertex="1">
                    <mxGeometry x="240" y="80" width="40" height="40" as="geometry"/>
                </mxCell>
                <mxCell id="JcRO-qJzwoVrJVAjZ1q9-49" value="" style="whiteSpace=wrap;html=1;aspect=fixed;fillColor=#d5e8d4;strokeColor=#82b366;" parent="1" vertex="1">
                    <mxGeometry x="200" y="120" width="40" height="40" as="geometry"/>
                </mxCell>
                <mxCell id="JcRO-qJzwoVrJVAjZ1q9-55" value="" style="whiteSpace=wrap;html=1;aspect=fixed;fillColor=#d5e8d4;strokeColor=#82b366;" parent="1" vertex="1">
                    <mxGeometry x="280" y="240" width="20" height="20" as="geometry"/>
                </mxCell>
                <mxCell id="JcRO-qJzwoVrJVAjZ1q9-56" value="" style="whiteSpace=wrap;html=1;aspect=fixed;" parent="1" vertex="1">
                    <mxGeometry x="260" y="260" width="20" height="20" as="geometry"/>
                </mxCell>
                <mxCell id="JcRO-qJzwoVrJVAjZ1q9-57" value="" style="whiteSpace=wrap;html=1;aspect=fixed;fillColor=#d5e8d4;strokeColor=#82b366;" parent="1" vertex="1">
                    <mxGeometry x="280" y="280" width="20" height="20" as="geometry"/>
                </mxCell>
                <mxCell id="JcRO-qJzwoVrJVAjZ1q9-58" value="" style="whiteSpace=wrap;html=1;aspect=fixed;" parent="1" vertex="1">
                    <mxGeometry x="240" y="240" width="20" height="20" as="geometry"/>
                </mxCell>
                <mxCell id="JcRO-qJzwoVrJVAjZ1q9-106" value="" style="whiteSpace=wrap;html=1;aspect=fixed;" parent="1" vertex="1">
                    <mxGeometry x="295" y="285" width="5" height="5" as="geometry"/>
                </mxCell>
                <mxCell id="JcRO-qJzwoVrJVAjZ1q9-59" value="" style="whiteSpace=wrap;html=1;aspect=fixed;" parent="1" vertex="1">
                    <mxGeometry x="260" y="280" width="20" height="20" as="geometry"/>
                </mxCell>
                <mxCell id="JcRO-qJzwoVrJVAjZ1q9-60" value="" style="whiteSpace=wrap;html=1;aspect=fixed;" parent="1" vertex="1">
                    <mxGeometry x="240" y="280" width="20" height="20" as="geometry"/>
                </mxCell>
                <mxCell id="JcRO-qJzwoVrJVAjZ1q9-61" value="" style="whiteSpace=wrap;html=1;aspect=fixed;" parent="1" vertex="1">
                    <mxGeometry x="240" y="300" width="20" height="20" as="geometry"/>
                </mxCell>
                <mxCell id="JcRO-qJzwoVrJVAjZ1q9-62" value="" style="whiteSpace=wrap;html=1;aspect=fixed;" parent="1" vertex="1">
                    <mxGeometry x="300" y="300" width="20" height="20" as="geometry"/>
                </mxCell>
                <mxCell id="JcRO-qJzwoVrJVAjZ1q9-63" value="" style="whiteSpace=wrap;html=1;aspect=fixed;fillColor=#d5e8d4;strokeColor=#82b366;" parent="1" vertex="1">
                    <mxGeometry x="240" y="220" width="20" height="20" as="geometry"/>
                </mxCell>
                <mxCell id="JcRO-qJzwoVrJVAjZ1q9-64" value="" style="whiteSpace=wrap;html=1;aspect=fixed;fillColor=#d5e8d4;strokeColor=#82b366;" parent="1" vertex="1">
                    <mxGeometry x="260" y="200" width="20" height="20" as="geometry"/>
                </mxCell>
                <mxCell id="JcRO-qJzwoVrJVAjZ1q9-65" value="" style="whiteSpace=wrap;html=1;aspect=fixed;fillColor=#d5e8d4;strokeColor=#82b366;" parent="1" vertex="1">
                    <mxGeometry x="280" y="200" width="20" height="20" as="geometry"/>
                </mxCell>
                <mxCell id="JcRO-qJzwoVrJVAjZ1q9-68" value="" style="whiteSpace=wrap;html=1;aspect=fixed;fillColor=#d5e8d4;strokeColor=#82b366;" parent="1" vertex="1">
                    <mxGeometry x="280" y="160" width="40" height="40" as="geometry"/>
                </mxCell>
                <mxCell id="JcRO-qJzwoVrJVAjZ1q9-70" value="" style="whiteSpace=wrap;html=1;aspect=fixed;fillColor=#d5e8d4;strokeColor=#82b366;" parent="1" vertex="1">
                    <mxGeometry x="300" y="220" width="20" height="20" as="geometry"/>
                </mxCell>
                <mxCell id="JcRO-qJzwoVrJVAjZ1q9-71" value="" style="whiteSpace=wrap;html=1;aspect=fixed;fillColor=#d5e8d4;strokeColor=#82b366;" parent="1" vertex="1">
                    <mxGeometry x="280" y="120" width="40" height="40" as="geometry"/>
                </mxCell>
                <mxCell id="JcRO-qJzwoVrJVAjZ1q9-72" value="" style="whiteSpace=wrap;html=1;aspect=fixed;" parent="1" vertex="1">
                    <mxGeometry x="320" y="80" width="40" height="40" as="geometry"/>
                </mxCell>
                <mxCell id="JcRO-qJzwoVrJVAjZ1q9-73" value="" style="whiteSpace=wrap;html=1;aspect=fixed;fillColor=#d5e8d4;strokeColor=#82b366;" parent="1" vertex="1">
                    <mxGeometry x="280" y="280" width="10" height="10" as="geometry"/>
                </mxCell>
                <mxCell id="JcRO-qJzwoVrJVAjZ1q9-74" value="" style="whiteSpace=wrap;html=1;aspect=fixed;" parent="1" vertex="1">
                    <mxGeometry x="290" y="290" width="10" height="10" as="geometry"/>
                </mxCell>
                <mxCell id="JcRO-qJzwoVrJVAjZ1q9-75" value="" style="whiteSpace=wrap;html=1;aspect=fixed;" parent="1" vertex="1">
                    <mxGeometry x="260" y="290" width="10" height="10" as="geometry"/>
                </mxCell>
                <mxCell id="JcRO-qJzwoVrJVAjZ1q9-76" value="" style="whiteSpace=wrap;html=1;aspect=fixed;" parent="1" vertex="1">
                    <mxGeometry x="270" y="280" width="10" height="10" as="geometry"/>
                </mxCell>
                <mxCell id="JcRO-qJzwoVrJVAjZ1q9-77" value="" style="whiteSpace=wrap;html=1;aspect=fixed;fillColor=#d5e8d4;strokeColor=#82b366;" parent="1" vertex="1">
                    <mxGeometry x="270" y="260" width="10" height="10" as="geometry"/>
                </mxCell>
                <mxCell id="JcRO-qJzwoVrJVAjZ1q9-78" value="" style="whiteSpace=wrap;html=1;aspect=fixed;" parent="1" vertex="1">
                    <mxGeometry x="260" y="270" width="10" height="10" as="geometry"/>
                </mxCell>
                <mxCell id="JcRO-qJzwoVrJVAjZ1q9-80" value="" style="whiteSpace=wrap;html=1;aspect=fixed;fillColor=#d5e8d4;strokeColor=#82b366;" parent="1" vertex="1">
                    <mxGeometry x="280" y="270" width="10" height="10" as="geometry"/>
                </mxCell>
                <mxCell id="JcRO-qJzwoVrJVAjZ1q9-81" value="" style="whiteSpace=wrap;html=1;aspect=fixed;fillColor=#d5e8d4;strokeColor=#82b366;" parent="1" vertex="1">
                    <mxGeometry x="300" y="260" width="10" height="10" as="geometry"/>
                </mxCell>
                <mxCell id="JcRO-qJzwoVrJVAjZ1q9-82" value="" style="whiteSpace=wrap;html=1;aspect=fixed;" parent="1" vertex="1">
                    <mxGeometry x="310" y="270" width="10" height="10" as="geometry"/>
                </mxCell>
                <mxCell id="JcRO-qJzwoVrJVAjZ1q9-83" value="" style="whiteSpace=wrap;html=1;aspect=fixed;fillColor=#d5e8d4;strokeColor=#82b366;" parent="1" vertex="1">
                    <mxGeometry x="270" y="250" width="10" height="10" as="geometry"/>
                </mxCell>
                <mxCell id="JcRO-qJzwoVrJVAjZ1q9-84" value="" style="whiteSpace=wrap;html=1;aspect=fixed;fillColor=#d5e8d4;strokeColor=#82b366;" parent="1" vertex="1">
                    <mxGeometry x="260" y="240" width="10" height="10" as="geometry"/>
                </mxCell>
                <mxCell id="JcRO-qJzwoVrJVAjZ1q9-85" value="" style="whiteSpace=wrap;html=1;aspect=fixed;fillColor=#d5e8d4;strokeColor=#82b366;" parent="1" vertex="1">
                    <mxGeometry x="280" y="240" width="10" height="10" as="geometry"/>
                </mxCell>
                <mxCell id="JcRO-qJzwoVrJVAjZ1q9-86" value="" style="whiteSpace=wrap;html=1;aspect=fixed;fillColor=#d5e8d4;strokeColor=#82b366;" parent="1" vertex="1">
                    <mxGeometry x="290" y="250" width="10" height="10" as="geometry"/>
                </mxCell>
                <mxCell id="JcRO-qJzwoVrJVAjZ1q9-87" value="" style="whiteSpace=wrap;html=1;aspect=fixed;fillColor=#d5e8d4;strokeColor=#82b366;" parent="1" vertex="1">
                    <mxGeometry x="300" y="240" width="10" height="10" as="geometry"/>
                </mxCell>
                <mxCell id="JcRO-qJzwoVrJVAjZ1q9-90" value="" style="whiteSpace=wrap;html=1;aspect=fixed;fillColor=#d5e8d4;strokeColor=#82b366;" parent="1" vertex="1">
                    <mxGeometry x="250" y="240" width="10" height="10" as="geometry"/>
                </mxCell>
                <mxCell id="JcRO-qJzwoVrJVAjZ1q9-91" value="" style="whiteSpace=wrap;html=1;aspect=fixed;fillColor=#d5e8d4;strokeColor=#82b366;" parent="1" vertex="1">
                    <mxGeometry x="260" y="220" width="10" height="10" as="geometry"/>
                </mxCell>
                <mxCell id="JcRO-qJzwoVrJVAjZ1q9-92" value="" style="whiteSpace=wrap;html=1;aspect=fixed;fillColor=#d5e8d4;strokeColor=#82b366;" parent="1" vertex="1">
                    <mxGeometry x="270" y="230" width="10" height="10" as="geometry"/>
                </mxCell>
                <mxCell id="JcRO-qJzwoVrJVAjZ1q9-93" value="" style="whiteSpace=wrap;html=1;aspect=fixed;fillColor=#d5e8d4;strokeColor=#82b366;" parent="1" vertex="1">
                    <mxGeometry x="290" y="220" width="10" height="10" as="geometry"/>
                </mxCell>
                <mxCell id="JcRO-qJzwoVrJVAjZ1q9-94" value="" style="whiteSpace=wrap;html=1;aspect=fixed;fillColor=#d5e8d4;strokeColor=#82b366;" parent="1" vertex="1">
                    <mxGeometry x="280" y="230" width="10" height="10" as="geometry"/>
                </mxCell>
                <mxCell id="JcRO-qJzwoVrJVAjZ1q9-98" value="" style="whiteSpace=wrap;html=1;aspect=fixed;fillColor=#d5e8d4;strokeColor=#82b366;" parent="1" vertex="1">
                    <mxGeometry x="280" y="290" width="5" height="5" as="geometry"/>
                </mxCell>
                <mxCell id="JcRO-qJzwoVrJVAjZ1q9-99" value="" style="whiteSpace=wrap;html=1;aspect=fixed;fillColor=#d5e8d4;strokeColor=#82b366;" parent="1" vertex="1">
                    <mxGeometry x="285" y="290" width="5" height="5" as="geometry"/>
                </mxCell>
                <mxCell id="JcRO-qJzwoVrJVAjZ1q9-100" value="" style="whiteSpace=wrap;html=1;aspect=fixed;fillColor=#d5e8d4;strokeColor=#82b366;" parent="1" vertex="1">
                    <mxGeometry x="280" y="295" width="5" height="5" as="geometry"/>
                </mxCell>
                <mxCell id="JcRO-qJzwoVrJVAjZ1q9-101" value="" style="whiteSpace=wrap;html=1;aspect=fixed;" parent="1" vertex="1">
                    <mxGeometry x="275" y="290" width="5" height="5" as="geometry"/>
                </mxCell>
                <mxCell id="JcRO-qJzwoVrJVAjZ1q9-102" value="" style="whiteSpace=wrap;html=1;aspect=fixed;" parent="1" vertex="1">
                    <mxGeometry x="270" y="295" width="5" height="5" as="geometry"/>
                </mxCell>
                <mxCell id="JcRO-qJzwoVrJVAjZ1q9-103" value="" style="whiteSpace=wrap;html=1;aspect=fixed;fillColor=#d5e8d4;strokeColor=#82b366;" parent="1" vertex="1">
                    <mxGeometry x="280" y="285" width="5" height="5" as="geometry"/>
                </mxCell>
                <mxCell id="JcRO-qJzwoVrJVAjZ1q9-104" value="" style="whiteSpace=wrap;html=1;aspect=fixed;fillColor=#d5e8d4;strokeColor=#82b366;" parent="1" vertex="1">
                    <mxGeometry x="285" y="280" width="5" height="5" as="geometry"/>
                </mxCell>
                <mxCell id="JcRO-qJzwoVrJVAjZ1q9-105" value="" style="whiteSpace=wrap;html=1;aspect=fixed;fillColor=#d5e8d4;strokeColor=#82b366;" parent="1" vertex="1">
                    <mxGeometry x="290" y="280" width="5" height="5" as="geometry"/>
                </mxCell>
                <mxCell id="JcRO-qJzwoVrJVAjZ1q9-107" value="" style="whiteSpace=wrap;html=1;aspect=fixed;" parent="1" vertex="1">
                    <mxGeometry x="290" y="290" width="5" height="5" as="geometry"/>
                </mxCell>
                <mxCell id="JcRO-qJzwoVrJVAjZ1q9-108" value="" style="whiteSpace=wrap;html=1;aspect=fixed;" parent="1" vertex="1">
                    <mxGeometry x="295" y="295" width="5" height="5" as="geometry"/>
                </mxCell>
                <mxCell id="JcRO-qJzwoVrJVAjZ1q9-109" value="" style="whiteSpace=wrap;html=1;aspect=fixed;" parent="1" vertex="1">
                    <mxGeometry x="270" y="280" width="5" height="5" as="geometry"/>
                </mxCell>
                <mxCell id="JcRO-qJzwoVrJVAjZ1q9-110" value="" style="whiteSpace=wrap;html=1;aspect=fixed;" parent="1" vertex="1">
                    <mxGeometry x="275" y="285" width="5" height="5" as="geometry"/>
                </mxCell>
                <mxCell id="JcRO-qJzwoVrJVAjZ1q9-111" value="" style="whiteSpace=wrap;html=1;aspect=fixed;fillColor=#d5e8d4;strokeColor=#82b366;" parent="1" vertex="1">
                    <mxGeometry x="280" y="270" width="5" height="5" as="geometry"/>
                </mxCell>
                <mxCell id="JcRO-qJzwoVrJVAjZ1q9-112" value="" style="whiteSpace=wrap;html=1;aspect=fixed;fillColor=#d5e8d4;strokeColor=#82b366;" parent="1" vertex="1">
                    <mxGeometry x="285" y="275" width="5" height="5" as="geometry"/>
                </mxCell>
                <mxCell id="JcRO-qJzwoVrJVAjZ1q9-113" value="" style="whiteSpace=wrap;html=1;aspect=fixed;fillColor=#d5e8d4;strokeColor=#82b366;" parent="1" vertex="1">
                    <mxGeometry x="290" y="270" width="5" height="5" as="geometry"/>
                </mxCell>
                <mxCell id="JcRO-qJzwoVrJVAjZ1q9-114" value="" style="whiteSpace=wrap;html=1;aspect=fixed;fillColor=#d5e8d4;strokeColor=#82b366;" parent="1" vertex="1">
                    <mxGeometry x="295" y="275" width="5" height="5" as="geometry"/>
                </mxCell>
                <mxCell id="JcRO-qJzwoVrJVAjZ1q9-115" value="" style="whiteSpace=wrap;html=1;aspect=fixed;" parent="1" vertex="1">
                    <mxGeometry x="270" y="270" width="5" height="5" as="geometry"/>
                </mxCell>
                <mxCell id="JcRO-qJzwoVrJVAjZ1q9-116" value="" style="whiteSpace=wrap;html=1;aspect=fixed;" parent="1" vertex="1">
                    <mxGeometry x="275" y="275" width="5" height="5" as="geometry"/>
                </mxCell>
                <mxCell id="JcRO-qJzwoVrJVAjZ1q9-117" value="" style="whiteSpace=wrap;html=1;aspect=fixed;fillColor=#d5e8d4;strokeColor=#82b366;" parent="1" vertex="1">
                    <mxGeometry x="280" y="260" width="5" height="5" as="geometry"/>
                </mxCell>
                <mxCell id="JcRO-qJzwoVrJVAjZ1q9-118" value="" style="whiteSpace=wrap;html=1;aspect=fixed;fillColor=#d5e8d4;strokeColor=#82b366;" parent="1" vertex="1">
                    <mxGeometry x="285" y="265" width="5" height="5" as="geometry"/>
                </mxCell>
                <mxCell id="JcRO-qJzwoVrJVAjZ1q9-119" value="" style="whiteSpace=wrap;html=1;aspect=fixed;fillColor=#d5e8d4;strokeColor=#82b366;" parent="1" vertex="1">
                    <mxGeometry x="240" y="160" width="40" height="40" as="geometry"/>
                </mxCell>
                <mxCell id="JcRO-qJzwoVrJVAjZ1q9-120" value="" style="whiteSpace=wrap;html=1;aspect=fixed;fillColor=#d5e8d4;strokeColor=#82b366;" parent="1" vertex="1">
                    <mxGeometry x="280" y="80" width="40" height="40" as="geometry"/>
                </mxCell>
                <mxCell id="JcRO-qJzwoVrJVAjZ1q9-121" value="" style="whiteSpace=wrap;html=1;aspect=fixed;fillColor=#d5e8d4;strokeColor=#82b366;" parent="1" vertex="1">
                    <mxGeometry x="320" y="80" width="40" height="40" as="geometry"/>
                </mxCell>
                <mxCell id="JcRO-qJzwoVrJVAjZ1q9-122" value="" style="whiteSpace=wrap;html=1;aspect=fixed;fillColor=#d5e8d4;strokeColor=#82b366;" parent="1" vertex="1">
                    <mxGeometry x="320" y="120" width="40" height="40" as="geometry"/>
                </mxCell>
                <mxCell id="JcRO-qJzwoVrJVAjZ1q9-123" value="" style="whiteSpace=wrap;html=1;aspect=fixed;fillColor=#d5e8d4;strokeColor=#82b366;" parent="1" vertex="1">
                    <mxGeometry x="270" y="240" width="10" height="10" as="geometry"/>
                </mxCell>
                <mxCell id="JcRO-qJzwoVrJVAjZ1q9-124" value="" style="whiteSpace=wrap;html=1;aspect=fixed;fillColor=#d5e8d4;strokeColor=#82b366;" parent="1" vertex="1">
                    <mxGeometry x="290" y="230" width="10" height="10" as="geometry"/>
                </mxCell>
                <mxCell id="JcRO-qJzwoVrJVAjZ1q9-125" value="" style="whiteSpace=wrap;html=1;aspect=fixed;fillColor=#d5e8d4;strokeColor=#82b366;" parent="1" vertex="1">
                    <mxGeometry x="280" y="220" width="10" height="10" as="geometry"/>
                </mxCell>
                <mxCell id="JcRO-qJzwoVrJVAjZ1q9-126" value="" style="whiteSpace=wrap;html=1;aspect=fixed;fillColor=#d5e8d4;strokeColor=#82b366;" parent="1" vertex="1">
                    <mxGeometry x="320" y="160" width="40" height="40" as="geometry"/>
                </mxCell>
                <mxCell id="JcRO-qJzwoVrJVAjZ1q9-54" value="" style="whiteSpace=wrap;html=1;aspect=fixed;" parent="1" vertex="1">
                    <mxGeometry x="300" y="260" width="20" height="20" as="geometry"/>
                </mxCell>
                <mxCell id="JcRO-qJzwoVrJVAjZ1q9-79" value="" style="whiteSpace=wrap;html=1;aspect=fixed;fillColor=#d5e8d4;strokeColor=#82b366;" parent="1" vertex="1">
                    <mxGeometry x="290" y="260" width="10" height="10" as="geometry"/>
                </mxCell>
                <mxCell id="JcRO-qJzwoVrJVAjZ1q9-129" value="" style="whiteSpace=wrap;html=1;aspect=fixed;fillColor=#d5e8d4;strokeColor=#82b366;" parent="1" vertex="1">
                    <mxGeometry x="300" y="200" width="20" height="20" as="geometry"/>
                </mxCell>
                <mxCell id="JcRO-qJzwoVrJVAjZ1q9-130" value="" style="whiteSpace=wrap;html=1;aspect=fixed;fillColor=#d5e8d4;strokeColor=#82b366;" parent="1" vertex="1">
                    <mxGeometry x="260" y="250" width="10" height="10" as="geometry"/>
                </mxCell>
                <mxCell id="JcRO-qJzwoVrJVAjZ1q9-133" value="" style="whiteSpace=wrap;html=1;aspect=fixed;fillColor=#d5e8d4;strokeColor=#82b366;" parent="1" vertex="1">
                    <mxGeometry x="275" y="285" width="5" height="5" as="geometry"/>
                </mxCell>
                <mxCell id="JcRO-qJzwoVrJVAjZ1q9-134" value="" style="whiteSpace=wrap;html=1;aspect=fixed;fillColor=#d5e8d4;strokeColor=#82b366;" parent="1" vertex="1">
                    <mxGeometry x="275" y="270" width="5" height="5" as="geometry"/>
                </mxCell>
                <mxCell id="JcRO-qJzwoVrJVAjZ1q9-135" value="" style="whiteSpace=wrap;html=1;aspect=fixed;fillColor=#d5e8d4;strokeColor=#82b366;" parent="1" vertex="1">
                    <mxGeometry x="295" y="270" width="5" height="5" as="geometry"/>
                </mxCell>
                <mxCell id="JcRO-qJzwoVrJVAjZ1q9-136" value="" style="whiteSpace=wrap;html=1;aspect=fixed;fillColor=#d5e8d4;strokeColor=#82b366;" parent="1" vertex="1">
                    <mxGeometry x="280" y="290" width="5" height="5" as="geometry"/>
                </mxCell>
                <mxCell id="JcRO-qJzwoVrJVAjZ1q9-137" value="" style="whiteSpace=wrap;html=1;aspect=fixed;fillColor=#d5e8d4;strokeColor=#82b366;" parent="1" vertex="1">
                    <mxGeometry x="295" y="275" width="5" height="5" as="geometry"/>
                </mxCell>
                <mxCell id="JcRO-qJzwoVrJVAjZ1q9-138" value="" style="whiteSpace=wrap;html=1;aspect=fixed;fillColor=#d5e8d4;strokeColor=#82b366;" parent="1" vertex="1">
                    <mxGeometry x="270" y="270" width="5" height="5" as="geometry"/>
                </mxCell>
                <mxCell id="JcRO-qJzwoVrJVAjZ1q9-139" value="" style="whiteSpace=wrap;html=1;aspect=fixed;fillColor=#d5e8d4;strokeColor=#82b366;" parent="1" vertex="1">
                    <mxGeometry x="270" y="275" width="5" height="5" as="geometry"/>
                </mxCell>
                <mxCell id="JcRO-qJzwoVrJVAjZ1q9-140" value="" style="whiteSpace=wrap;html=1;aspect=fixed;fillColor=#d5e8d4;strokeColor=#82b366;" parent="1" vertex="1">
                    <mxGeometry x="275" y="280" width="5" height="5" as="geometry"/>
                </mxCell>
                <mxCell id="JcRO-qJzwoVrJVAjZ1q9-141" value="" style="whiteSpace=wrap;html=1;aspect=fixed;fillColor=#d5e8d4;strokeColor=#82b366;" parent="1" vertex="1">
                    <mxGeometry x="285" y="290" width="5" height="5" as="geometry"/>
                </mxCell>
                <mxCell id="JcRO-qJzwoVrJVAjZ1q9-152" value="" style="whiteSpace=wrap;html=1;aspect=fixed;fillColor=#d5e8d4;strokeColor=#82b366;" parent="1" vertex="1">
                    <mxGeometry x="260" y="260" width="10" height="10" as="geometry"/>
                </mxCell>
                <mxCell id="JcRO-qJzwoVrJVAjZ1q9-142" value="" style="whiteSpace=wrap;html=1;aspect=fixed;fillColor=#d5e8d4;strokeColor=#82b366;" parent="1" vertex="1">
                    <mxGeometry x="285" y="295" width="5" height="5" as="geometry"/>
                </mxCell>
                <mxCell id="JcRO-qJzwoVrJVAjZ1q9-143" value="" style="whiteSpace=wrap;html=1;aspect=fixed;fillColor=#d5e8d4;strokeColor=#82b366;" parent="1" vertex="1">
                    <mxGeometry x="275" y="275" width="5" height="5" as="geometry"/>
                </mxCell>
                <mxCell id="JcRO-qJzwoVrJVAjZ1q9-144" value="" style="whiteSpace=wrap;html=1;aspect=fixed;fillColor=#d5e8d4;strokeColor=#82b366;" parent="1" vertex="1">
                    <mxGeometry x="320" y="200" width="20" height="20" as="geometry"/>
                </mxCell>
                <mxCell id="JcRO-qJzwoVrJVAjZ1q9-146" value="" style="whiteSpace=wrap;html=1;aspect=fixed;" parent="1" vertex="1">
                    <mxGeometry x="340" y="220" width="20" height="20" as="geometry"/>
                </mxCell>
                <mxCell id="JcRO-qJzwoVrJVAjZ1q9-148" value="" style="whiteSpace=wrap;html=1;aspect=fixed;fillColor=#d5e8d4;strokeColor=#82b366;" parent="1" vertex="1">
                    <mxGeometry x="290" y="275" width="5" height="5" as="geometry"/>
                </mxCell>
                <mxCell id="JcRO-qJzwoVrJVAjZ1q9-150" value="" style="whiteSpace=wrap;html=1;aspect=fixed;" parent="1" vertex="1">
                    <mxGeometry x="310" y="250" width="10" height="10" as="geometry"/>
                </mxCell>
                <mxCell id="JcRO-qJzwoVrJVAjZ1q9-151" value="" style="whiteSpace=wrap;html=1;aspect=fixed;" parent="1" vertex="1">
                    <mxGeometry x="240" y="250" width="10" height="10" as="geometry"/>
                </mxCell>
                <mxCell id="JcRO-qJzwoVrJVAjZ1q9-147" value="" style="whiteSpace=wrap;html=1;aspect=fixed;fillColor=#d5e8d4;strokeColor=#82b366;" parent="1" vertex="1">
                    <mxGeometry x="285" y="260" width="5" height="5" as="geometry"/>
                </mxCell>
                <mxCell id="JcRO-qJzwoVrJVAjZ1q9-149" value="" style="whiteSpace=wrap;html=1;aspect=fixed;fillColor=#d5e8d4;strokeColor=#82b366;" parent="1" vertex="1">
                    <mxGeometry x="280" y="265" width="5" height="5" as="geometry"/>
                </mxCell>
                <mxCell id="JcRO-qJzwoVrJVAjZ1q9-153" value="" style="whiteSpace=wrap;html=1;aspect=fixed;fillColor=#d5e8d4;strokeColor=#82b366;" parent="1" vertex="1">
                    <mxGeometry x="300" y="250" width="10" height="10" as="geometry"/>
                </mxCell>
                <mxCell id="JcRO-qJzwoVrJVAjZ1q9-154" value="" style="whiteSpace=wrap;html=1;aspect=fixed;fillColor=#d5e8d4;strokeColor=#82b366;" parent="1" vertex="1">
                    <mxGeometry x="270" y="280" width="5" height="5" as="geometry"/>
                </mxCell>
                <mxCell id="JcRO-qJzwoVrJVAjZ1q9-156" value="" style="whiteSpace=wrap;html=1;aspect=fixed;fillColor=#d5e8d4;strokeColor=#82b366;" parent="1" vertex="1">
                    <mxGeometry x="300" y="260" width="10" height="10" as="geometry"/>
                </mxCell>
                <mxCell id="JcRO-qJzwoVrJVAjZ1q9-157" value="" style="whiteSpace=wrap;html=1;aspect=fixed;" parent="1" vertex="1">
                    <mxGeometry x="310" y="270" width="10" height="10" as="geometry"/>
                </mxCell>
                <mxCell id="JcRO-qJzwoVrJVAjZ1q9-158" value="" style="whiteSpace=wrap;html=1;aspect=fixed;fillColor=#d5e8d4;strokeColor=#82b366;" parent="1" vertex="1">
                    <mxGeometry x="275" y="290" width="5" height="5" as="geometry"/>
                </mxCell>
                <mxCell id="JcRO-qJzwoVrJVAjZ1q9-159" value="" style="whiteSpace=wrap;html=1;aspect=fixed;fillColor=#d5e8d4;strokeColor=#82b366;" parent="1" vertex="1">
                    <mxGeometry x="275" y="295" width="5" height="5" as="geometry"/>
                </mxCell>
                <mxCell id="JcRO-qJzwoVrJVAjZ1q9-160" value="" style="whiteSpace=wrap;html=1;aspect=fixed;fillColor=#d5e8d4;strokeColor=#82b366;" parent="1" vertex="1">
                    <mxGeometry x="290" y="290" width="5" height="5" as="geometry"/>
                </mxCell>
                <mxCell id="JcRO-qJzwoVrJVAjZ1q9-161" value="" style="whiteSpace=wrap;html=1;aspect=fixed;fillColor=#d5e8d4;strokeColor=#82b366;" parent="1" vertex="1">
                    <mxGeometry x="290" y="295" width="5" height="5" as="geometry"/>
                </mxCell>
                <mxCell id="JcRO-qJzwoVrJVAjZ1q9-162" value="" style="whiteSpace=wrap;html=1;aspect=fixed;fillColor=#d5e8d4;strokeColor=#82b366;" parent="1" vertex="1">
                    <mxGeometry x="295" y="280" width="5" height="5" as="geometry"/>
                </mxCell>
                <mxCell id="JcRO-qJzwoVrJVAjZ1q9-163" value="" style="whiteSpace=wrap;html=1;aspect=fixed;fillColor=#d5e8d4;strokeColor=#82b366;" parent="1" vertex="1">
                    <mxGeometry x="290" y="285" width="5" height="5" as="geometry"/>
                </mxCell>
                <mxCell id="2" value="" style="whiteSpace=wrap;html=1;aspect=fixed;fillColor=#d5e8d4;strokeColor=#82b366;" vertex="1" parent="1">
                    <mxGeometry x="310" y="240" width="10" height="10" as="geometry"/>
                </mxCell>
                <mxCell id="JcRO-qJzwoVrJVAjZ1q9-37" value="" style="shape=trapezoid;perimeter=trapezoidPerimeter;whiteSpace=wrap;html=1;fixedSize=1;rotation=-180;size=70;fillColor=#dae8fc;strokeColor=#6c8ebf;opacity=70;" parent="1" vertex="1">
                    <mxGeometry x="210" y="100" width="150" height="200" as="geometry"/>
                </mxCell>
            </root>
        </mxGraphModel>
    </diagram>
</mxfile>